<svg width="350" height="100" viewBox="0 0 350 100" fill="none" xmlns="http://www.w3.org/2000/svg">
<rect width="350" height="100" fill="#2F2F2F"/>
<path d="M49.3333 66.28C47.2853 66.28 45.4079 65.9493 43.7013 65.288C42.0159 64.648 40.5546 63.7093 39.3173 62.472C38.1013 61.256 37.1626 59.8053 36.5013 58.12C35.8399 56.4133 35.5093 54.5147 35.5093 52.424C35.5093 50.2693 35.8506 48.3173 36.5333 46.568C37.2159 44.8187 38.1973 43.3147 39.4773 42.056C40.7573 40.7973 42.2719 39.8267 44.0213 39.144C45.7919 38.4613 47.7439 38.12 49.8773 38.12C52.3946 38.12 54.5919 38.6213 56.4693 39.624C58.3679 40.6053 59.8399 41.992 60.8853 43.784C61.9306 45.5547 62.4533 47.6453 62.4533 50.056C62.4533 51.912 62.1866 53.5227 61.6533 54.888C61.1413 56.232 60.4159 57.2773 59.4773 58.024C58.5599 58.7493 57.4826 59.112 56.2453 59.112C54.9439 59.112 53.9306 58.76 53.2053 58.056C52.5013 57.3307 52.1279 56.328 52.0853 55.048L53.0773 54.728C52.5439 56.1787 51.7866 57.2773 50.8053 58.024C49.8239 58.7493 48.7573 59.112 47.6053 59.112C45.8986 59.112 44.5759 58.5787 43.6373 57.512C42.6986 56.4453 42.2292 54.984 42.2292 53.128C42.2292 51.5707 42.5173 50.184 43.0933 48.968C43.6906 47.752 44.5013 46.792 45.5253 46.088C46.5706 45.384 47.7546 45.032 49.0773 45.032C50.2079 45.032 51.1359 45.32 51.8612 45.896C52.5866 46.4507 53.0773 47.272 53.3333 48.36H52.7893L53.0773 46.632C53.2266 45.7147 53.7813 45.256 54.7413 45.256C55.2319 45.256 55.5946 45.3947 55.8293 45.672C56.0853 45.9493 56.1599 46.3547 56.0533 46.888L54.9653 53.064C54.9013 53.4053 54.8479 53.7253 54.8053 54.024C54.7839 54.3013 54.7733 54.5573 54.7733 54.792C54.7733 55.4533 54.9119 55.944 55.1893 56.264C55.4666 56.584 55.8826 56.744 56.4373 56.744C57.1413 56.744 57.7493 56.4667 58.2613 55.912C58.7946 55.3573 59.2106 54.5787 59.5093 53.576C59.8079 52.552 59.9573 51.3787 59.9573 50.056C59.9573 48.072 59.5413 46.376 58.7093 44.968C57.8986 43.56 56.7359 42.4827 55.2213 41.736C53.7279 40.968 51.9359 40.584 49.8453 40.584C47.5199 40.584 45.4933 41.0747 43.7653 42.056C42.0373 43.016 40.6933 44.3813 39.7333 46.152C38.7733 47.9227 38.2933 50.0133 38.2933 52.424C38.2933 54.792 38.7413 56.8293 39.6373 58.536C40.5546 60.2427 41.8346 61.544 43.4773 62.44C45.1413 63.3573 47.0933 63.816 49.3333 63.816C50.7413 63.816 52.0106 63.6453 53.1413 63.304C54.2933 62.984 55.3279 62.504 56.2453 61.864C56.6293 61.5867 56.9813 61.48 57.3013 61.544C57.6426 61.6293 57.8986 61.8107 58.0693 62.088C58.2399 62.3653 58.2933 62.6747 58.2293 63.016C58.1866 63.3573 57.9733 63.6667 57.5893 63.944C56.6079 64.648 55.4133 65.2133 54.0053 65.64C52.6186 66.0667 51.0613 66.28 49.3333 66.28ZM48.1813 56.584C48.9919 56.584 49.7066 56.3387 50.3253 55.848C50.9653 55.336 51.4559 54.6427 51.7973 53.768C52.1599 52.872 52.3413 51.848 52.3413 50.696C52.3413 49.672 52.1173 48.904 51.6693 48.392C51.2213 47.8587 50.5279 47.592 49.5893 47.592C48.7786 47.592 48.0533 47.8267 47.4133 48.296C46.7733 48.7653 46.2719 49.416 45.9093 50.248C45.5466 51.0587 45.3653 52.008 45.3653 53.096C45.3653 54.2267 45.6106 55.0907 46.1013 55.688C46.5919 56.2853 47.2853 56.584 48.1813 56.584ZM68.3155 61.256C67.6755 61.256 67.1848 61.0853 66.8435 60.744C66.5022 60.3813 66.3315 59.8693 66.3315 59.208V47.112C66.3315 46.4507 66.5022 45.9493 66.8435 45.608C67.1848 45.2667 67.6648 45.096 68.2835 45.096C68.9022 45.096 69.3822 45.2667 69.7235 45.608C70.0648 45.9493 70.2355 46.4507 70.2355 47.112V49.448L69.8835 48.488C70.3102 47.4213 70.9715 46.5787 71.8675 45.96C72.7635 45.3413 73.8302 45.032 75.0675 45.032C76.3262 45.032 77.3608 45.3307 78.1715 45.928C78.9822 46.5253 79.5475 47.4427 79.8675 48.68H79.4195C79.8462 47.5493 80.5502 46.664 81.5315 46.024C82.5128 45.3627 83.6435 45.032 84.9235 45.032C86.1182 45.032 87.0995 45.2667 87.8675 45.736C88.6568 46.2053 89.2435 46.92 89.6275 47.88C90.0115 48.8187 90.2035 50.0133 90.2035 51.464V59.208C90.2035 59.8693 90.0222 60.3813 89.6595 60.744C89.3182 61.0853 88.8275 61.256 88.1875 61.256C87.5475 61.256 87.0568 61.0853 86.7155 60.744C86.3742 60.3813 86.2035 59.8693 86.2035 59.208V51.624C86.2035 50.4293 86.0008 49.5547 85.5955 49C85.2115 48.4453 84.5502 48.168 83.6115 48.168C82.5662 48.168 81.7448 48.5413 81.1475 49.288C80.5502 50.0133 80.2515 51.0267 80.2515 52.328V59.208C80.2515 59.8693 80.0808 60.3813 79.7395 60.744C79.3982 61.0853 78.9075 61.256 78.2675 61.256C77.6275 61.256 77.1262 61.0853 76.7635 60.744C76.4222 60.3813 76.2515 59.8693 76.2515 59.208V51.624C76.2515 50.4293 76.0488 49.5547 75.6435 49C75.2595 48.4453 74.6088 48.168 73.6915 48.168C72.6462 48.168 71.8248 48.5413 71.2275 49.288C70.6302 50.0133 70.3315 51.0267 70.3315 52.328V59.208C70.3315 60.5733 69.6595 61.256 68.3155 61.256ZM99.482 61.32C98.3513 61.32 97.338 61.1067 96.442 60.68C95.5673 60.232 94.874 59.6347 94.362 58.888C93.8713 58.1413 93.626 57.2987 93.626 56.36C93.626 55.208 93.9247 54.3013 94.522 53.64C95.1193 52.9573 96.09 52.4667 97.434 52.168C98.778 51.8693 100.581 51.72 102.842 51.72H104.442V54.024H102.874C101.551 54.024 100.495 54.088 99.706 54.216C98.9167 54.344 98.3513 54.568 98.01 54.888C97.69 55.1867 97.53 55.6133 97.53 56.168C97.53 56.872 97.7753 57.448 98.266 57.896C98.7567 58.344 99.4393 58.568 100.314 58.568C101.018 58.568 101.637 58.408 102.17 58.088C102.725 57.7467 103.162 57.288 103.482 56.712C103.802 56.136 103.962 55.4747 103.962 54.728V51.048C103.962 49.9813 103.727 49.2133 103.258 48.744C102.789 48.2747 101.999 48.04 100.89 48.04C100.271 48.04 99.5993 48.1147 98.874 48.264C98.17 48.4133 97.4233 48.6693 96.634 49.032C96.2287 49.224 95.866 49.2773 95.546 49.192C95.2473 49.1067 95.0127 48.936 94.842 48.68C94.6713 48.4027 94.586 48.104 94.586 47.784C94.586 47.464 94.6713 47.1547 94.842 46.856C95.0127 46.536 95.3007 46.3013 95.706 46.152C96.6873 45.7467 97.626 45.4587 98.522 45.288C99.4393 45.1173 100.271 45.032 101.018 45.032C102.554 45.032 103.813 45.2667 104.794 45.736C105.797 46.2053 106.543 46.92 107.034 47.88C107.525 48.8187 107.77 50.0347 107.77 51.528V59.208C107.77 59.8693 107.61 60.3813 107.29 60.744C106.97 61.0853 106.511 61.256 105.914 61.256C105.317 61.256 104.847 61.0853 104.506 60.744C104.186 60.3813 104.026 59.8693 104.026 59.208V57.672H104.282C104.133 58.4187 103.834 59.0693 103.386 59.624C102.959 60.1573 102.415 60.5733 101.754 60.872C101.093 61.1707 100.335 61.32 99.482 61.32ZM113.814 61.256C113.174 61.256 112.683 61.0853 112.342 60.744C112.001 60.3813 111.83 59.8693 111.83 59.208V40.2C111.83 39.5387 112.001 39.0373 112.342 38.696C112.683 38.3547 113.174 38.184 113.814 38.184C114.454 38.184 114.945 38.3547 115.286 38.696C115.649 39.0373 115.83 39.5387 115.83 40.2V52.008H115.894L121.174 46.44C121.601 46.0133 121.974 45.6827 122.294 45.448C122.614 45.2133 123.051 45.096 123.606 45.096C124.161 45.096 124.577 45.2453 124.854 45.544C125.153 45.8213 125.302 46.1627 125.302 46.568C125.302 46.9733 125.11 47.3787 124.726 47.784L119.158 53.672V52.008L125.27 58.6C125.654 59.0053 125.825 59.4213 125.782 59.848C125.761 60.2533 125.59 60.5947 125.27 60.872C124.95 61.128 124.545 61.256 124.054 61.256C123.457 61.256 122.977 61.1387 122.614 60.904C122.273 60.6693 121.889 60.3173 121.462 59.848L115.894 54.024H115.83V59.208C115.83 60.5733 115.158 61.256 113.814 61.256ZM134.464 61.32C133.547 61.32 132.576 61.224 131.552 61.032C130.528 60.84 129.611 60.5093 128.8 60.04C128.459 59.8267 128.214 59.5813 128.064 59.304C127.936 59.0053 127.883 58.7173 127.904 58.44C127.947 58.1413 128.054 57.8853 128.224 57.672C128.416 57.4587 128.651 57.32 128.928 57.256C129.227 57.192 129.547 57.2453 129.888 57.416C130.742 57.8213 131.542 58.1093 132.288 58.28C133.035 58.4293 133.771 58.504 134.496 58.504C135.52 58.504 136.278 58.3333 136.768 57.992C137.28 57.6293 137.536 57.16 137.536 56.584C137.536 56.0933 137.366 55.72 137.024 55.464C136.704 55.1867 136.214 54.984 135.552 54.856L132.352 54.248C131.03 53.992 130.016 53.512 129.312 52.808C128.63 52.0827 128.288 51.1547 128.288 50.024C128.288 49 128.566 48.1147 129.12 47.368C129.696 46.6213 130.486 46.0453 131.488 45.64C132.491 45.2347 133.643 45.032 134.944 45.032C135.883 45.032 136.758 45.1387 137.568 45.352C138.4 45.544 139.2 45.8533 139.968 46.28C140.288 46.4507 140.502 46.6747 140.608 46.952C140.736 47.2293 140.768 47.5173 140.704 47.816C140.64 48.0933 140.512 48.3493 140.32 48.584C140.128 48.7973 139.883 48.936 139.584 49C139.307 49.0427 138.987 48.9787 138.624 48.808C137.963 48.4667 137.323 48.2213 136.704 48.072C136.107 47.9227 135.531 47.848 134.976 47.848C133.931 47.848 133.152 48.0293 132.64 48.392C132.15 48.7547 131.904 49.2347 131.904 49.832C131.904 50.28 132.054 50.6533 132.352 50.952C132.651 51.2507 133.11 51.4533 133.728 51.56L136.928 52.168C138.315 52.424 139.36 52.8933 140.064 53.576C140.79 54.2587 141.152 55.176 141.152 56.328C141.152 57.8853 140.544 59.112 139.328 60.008C138.112 60.8827 136.491 61.32 134.464 61.32ZM146.345 61.224C145.705 61.224 145.215 61.032 144.873 60.648C144.532 60.264 144.361 59.7307 144.361 59.048V47.304C144.361 46.6 144.532 46.0667 144.873 45.704C145.215 45.32 145.705 45.128 146.345 45.128C146.985 45.128 147.476 45.32 147.817 45.704C148.18 46.0667 148.361 46.6 148.361 47.304V59.048C148.361 59.7307 148.191 60.264 147.849 60.648C147.508 61.032 147.007 61.224 146.345 61.224ZM146.345 42.152C145.599 42.152 145.012 41.9707 144.585 41.608C144.18 41.224 143.977 40.7013 143.977 40.04C143.977 39.3573 144.18 38.8347 144.585 38.472C145.012 38.1093 145.599 37.928 146.345 37.928C147.113 37.928 147.7 38.1093 148.105 38.472C148.511 38.8347 148.713 39.3573 148.713 40.04C148.713 40.7013 148.511 41.224 148.105 41.608C147.7 41.9707 147.113 42.152 146.345 42.152ZM154.566 61.256C153.926 61.256 153.435 61.0853 153.094 60.744C152.752 60.3813 152.582 59.8693 152.582 59.208V47.112C152.582 46.4507 152.752 45.9493 153.094 45.608C153.435 45.2667 153.915 45.096 154.534 45.096C155.152 45.096 155.632 45.2667 155.974 45.608C156.315 45.9493 156.486 46.4507 156.486 47.112V49.448L156.134 48.488C156.56 47.4213 157.222 46.5787 158.118 45.96C159.014 45.3413 160.08 45.032 161.318 45.032C162.576 45.032 163.611 45.3307 164.422 45.928C165.232 46.5253 165.798 47.4427 166.118 48.68H165.67C166.096 47.5493 166.8 46.664 167.782 46.024C168.763 45.3627 169.894 45.032 171.174 45.032C172.368 45.032 173.35 45.2667 174.118 45.736C174.907 46.2053 175.494 46.92 175.878 47.88C176.262 48.8187 176.454 50.0133 176.454 51.464V59.208C176.454 59.8693 176.272 60.3813 175.91 60.744C175.568 61.0853 175.078 61.256 174.438 61.256C173.798 61.256 173.307 61.0853 172.966 60.744C172.624 60.3813 172.454 59.8693 172.454 59.208V51.624C172.454 50.4293 172.251 49.5547 171.846 49C171.462 48.4453 170.8 48.168 169.862 48.168C168.816 48.168 167.995 48.5413 167.398 49.288C166.8 50.0133 166.502 51.0267 166.502 52.328V59.208C166.502 59.8693 166.331 60.3813 165.99 60.744C165.648 61.0853 165.158 61.256 164.518 61.256C163.878 61.256 163.376 61.0853 163.014 60.744C162.672 60.3813 162.502 59.8693 162.502 59.208V51.624C162.502 50.4293 162.299 49.5547 161.894 49C161.51 48.4453 160.859 48.168 159.942 48.168C158.896 48.168 158.075 48.5413 157.478 49.288C156.88 50.0133 156.582 51.0267 156.582 52.328V59.208C156.582 60.5733 155.91 61.256 154.566 61.256ZM184.392 67.016C183.922 67.016 183.538 66.888 183.24 66.632C182.941 66.3973 182.76 66.0773 182.696 65.672C182.653 65.2667 182.728 64.84 182.92 64.392L185.096 59.56V61.224L179.272 47.752C179.08 47.2827 179.016 46.8453 179.08 46.44C179.144 46.0347 179.336 45.7147 179.656 45.48C179.997 45.224 180.456 45.096 181.032 45.096C181.522 45.096 181.917 45.2133 182.216 45.448C182.514 45.6613 182.781 46.0773 183.016 46.696L187.336 57.48H186.376L190.792 46.664C191.026 46.0667 191.304 45.6613 191.624 45.448C191.944 45.2133 192.37 45.096 192.904 45.096C193.373 45.096 193.746 45.224 194.024 45.48C194.301 45.7147 194.472 46.0347 194.536 46.44C194.6 46.824 194.525 47.2507 194.312 47.72L186.536 65.48C186.258 66.0773 185.96 66.4827 185.64 66.696C185.32 66.9093 184.904 67.016 184.392 67.016ZM202.107 61.32C200.976 61.32 199.963 61.1067 199.067 60.68C198.192 60.232 197.499 59.6347 196.987 58.888C196.496 58.1413 196.251 57.2987 196.251 56.36C196.251 55.208 196.55 54.3013 197.147 53.64C197.744 52.9573 198.715 52.4667 200.059 52.168C201.403 51.8693 203.206 51.72 205.467 51.72H207.067V54.024H205.499C204.176 54.024 203.12 54.088 202.331 54.216C201.542 54.344 200.976 54.568 200.635 54.888C200.315 55.1867 200.155 55.6133 200.155 56.168C200.155 56.872 200.4 57.448 200.891 57.896C201.382 58.344 202.064 58.568 202.939 58.568C203.643 58.568 204.262 58.408 204.795 58.088C205.35 57.7467 205.787 57.288 206.107 56.712C206.427 56.136 206.587 55.4747 206.587 54.728V51.048C206.587 49.9813 206.352 49.2133 205.883 48.744C205.414 48.2747 204.624 48.04 203.515 48.04C202.896 48.04 202.224 48.1147 201.499 48.264C200.795 48.4133 200.048 48.6693 199.259 49.032C198.854 49.224 198.491 49.2773 198.171 49.192C197.872 49.1067 197.638 48.936 197.467 48.68C197.296 48.4027 197.211 48.104 197.211 47.784C197.211 47.464 197.296 47.1547 197.467 46.856C197.638 46.536 197.926 46.3013 198.331 46.152C199.312 45.7467 200.251 45.4587 201.147 45.288C202.064 45.1173 202.896 45.032 203.643 45.032C205.179 45.032 206.438 45.2667 207.419 45.736C208.422 46.2053 209.168 46.92 209.659 47.88C210.15 48.8187 210.395 50.0347 210.395 51.528V59.208C210.395 59.8693 210.235 60.3813 209.915 60.744C209.595 61.0853 209.136 61.256 208.539 61.256C207.942 61.256 207.472 61.0853 207.131 60.744C206.811 60.3813 206.651 59.8693 206.651 59.208V57.672H206.907C206.758 58.4187 206.459 59.0693 206.011 59.624C205.584 60.1573 205.04 60.5733 204.379 60.872C203.718 61.1707 202.96 61.32 202.107 61.32ZM216.439 61.256C215.799 61.256 215.308 61.0853 214.967 60.744C214.626 60.3813 214.455 59.8693 214.455 59.208V40.2C214.455 39.5387 214.626 39.0373 214.967 38.696C215.308 38.3547 215.799 38.184 216.439 38.184C217.079 38.184 217.57 38.3547 217.911 38.696C218.274 39.0373 218.455 39.5387 218.455 40.2V52.008H218.519L223.799 46.44C224.226 46.0133 224.599 45.6827 224.919 45.448C225.239 45.2133 225.676 45.096 226.231 45.096C226.786 45.096 227.202 45.2453 227.479 45.544C227.778 45.8213 227.927 46.1627 227.927 46.568C227.927 46.9733 227.735 47.3787 227.351 47.784L221.783 53.672V52.008L227.895 58.6C228.279 59.0053 228.45 59.4213 228.407 59.848C228.386 60.2533 228.215 60.5947 227.895 60.872C227.575 61.128 227.17 61.256 226.679 61.256C226.082 61.256 225.602 61.1387 225.239 60.904C224.898 60.6693 224.514 60.3173 224.087 59.848L218.519 54.024H218.455V59.208C218.455 60.5733 217.783 61.256 216.439 61.256ZM237.275 61.32C235.974 61.32 234.897 61.0853 234.043 60.616C233.19 60.1253 232.55 59.4 232.123 58.44C231.718 57.48 231.515 56.2853 231.515 54.856V47.112C231.515 46.4293 231.686 45.928 232.027 45.608C232.369 45.2667 232.859 45.096 233.499 45.096C234.139 45.096 234.63 45.2667 234.971 45.608C235.334 45.928 235.515 46.4293 235.515 47.112V54.92C235.515 56.0293 235.739 56.8507 236.187 57.384C236.635 57.9173 237.35 58.184 238.331 58.184C239.398 58.184 240.273 57.8213 240.955 57.096C241.638 56.3493 241.979 55.368 241.979 54.152V47.112C241.979 46.4293 242.15 45.928 242.491 45.608C242.833 45.2667 243.323 45.096 243.963 45.096C244.603 45.096 245.094 45.2667 245.435 45.608C245.798 45.928 245.979 46.4293 245.979 47.112V59.208C245.979 60.5733 245.329 61.256 244.027 61.256C243.409 61.256 242.929 61.0853 242.587 60.744C242.246 60.3813 242.075 59.8693 242.075 59.208V56.776L242.523 57.736C242.075 58.888 241.393 59.7733 240.475 60.392C239.579 61.0107 238.513 61.32 237.275 61.32ZM255.871 61.32C254.953 61.32 253.983 61.224 252.959 61.032C251.935 60.84 251.017 60.5093 250.207 60.04C249.865 59.8267 249.62 59.5813 249.471 59.304C249.343 59.0053 249.289 58.7173 249.311 58.44C249.353 58.1413 249.46 57.8853 249.631 57.672C249.823 57.4587 250.057 57.32 250.335 57.256C250.633 57.192 250.953 57.2453 251.295 57.416C252.148 57.8213 252.948 58.1093 253.695 58.28C254.441 58.4293 255.177 58.504 255.903 58.504C256.927 58.504 257.684 58.3333 258.175 57.992C258.687 57.6293 258.943 57.16 258.943 56.584C258.943 56.0933 258.772 55.72 258.431 55.464C258.111 55.1867 257.62 54.984 256.959 54.856L253.759 54.248C252.436 53.992 251.423 53.512 250.719 52.808C250.036 52.0827 249.695 51.1547 249.695 50.024C249.695 49 249.972 48.1147 250.527 47.368C251.103 46.6213 251.892 46.0453 252.895 45.64C253.897 45.2347 255.049 45.032 256.351 45.032C257.289 45.032 258.164 45.1387 258.975 45.352C259.807 45.544 260.607 45.8533 261.375 46.28C261.695 46.4507 261.908 46.6747 262.015 46.952C262.143 47.2293 262.175 47.5173 262.111 47.816C262.047 48.0933 261.919 48.3493 261.727 48.584C261.535 48.7973 261.289 48.936 260.991 49C260.713 49.0427 260.393 48.9787 260.031 48.808C259.369 48.4667 258.729 48.2213 258.111 48.072C257.513 47.9227 256.937 47.848 256.383 47.848C255.337 47.848 254.559 48.0293 254.047 48.392C253.556 48.7547 253.311 49.2347 253.311 49.832C253.311 50.28 253.46 50.6533 253.759 50.952C254.057 51.2507 254.516 51.4533 255.135 51.56L258.335 52.168C259.721 52.424 260.767 52.8933 261.471 53.576C262.196 54.2587 262.559 55.176 262.559 56.328C262.559 57.8853 261.951 59.112 260.735 60.008C259.519 60.8827 257.897 61.32 255.871 61.32ZM267.752 61.256C267.112 61.256 266.621 61.0853 266.28 60.744C265.938 60.3813 265.768 59.8693 265.768 59.208V40.2C265.768 39.5387 265.938 39.0373 266.28 38.696C266.621 38.3547 267.112 38.184 267.752 38.184C268.392 38.184 268.882 38.3547 269.224 38.696C269.586 39.0373 269.768 39.5387 269.768 40.2V48.488H269.32C269.789 47.3573 270.514 46.504 271.496 45.928C272.498 45.3307 273.629 45.032 274.888 45.032C276.146 45.032 277.181 45.2667 277.992 45.736C278.802 46.2053 279.41 46.92 279.816 47.88C280.221 48.8187 280.424 50.0133 280.424 51.464V59.208C280.424 59.8693 280.253 60.3813 279.912 60.744C279.57 61.0853 279.08 61.256 278.44 61.256C277.8 61.256 277.298 61.0853 276.936 60.744C276.594 60.3813 276.424 59.8693 276.424 59.208V51.656C276.424 50.44 276.189 49.5547 275.72 49C275.272 48.4453 274.568 48.168 273.608 48.168C272.434 48.168 271.496 48.5413 270.792 49.288C270.109 50.0133 269.768 50.984 269.768 52.2V59.208C269.768 60.5733 269.096 61.256 267.752 61.256ZM285.222 61.928C285.094 62.3333 284.892 62.6213 284.614 62.792C284.337 62.984 284.028 63.08 283.686 63.08C283.366 63.08 283.068 62.9947 282.79 62.824C282.513 62.6533 282.321 62.408 282.214 62.088C282.086 61.7893 282.086 61.4267 282.214 61L289.606 38.056C289.734 37.6507 289.937 37.352 290.214 37.16C290.513 36.968 290.822 36.8827 291.142 36.904C291.462 36.904 291.761 36.9893 292.038 37.16C292.316 37.3307 292.508 37.5653 292.614 37.864C292.742 38.1627 292.742 38.5253 292.614 38.952L285.222 61.928ZM298.275 61.32C296.974 61.32 295.897 61.0853 295.043 60.616C294.19 60.1253 293.55 59.4 293.123 58.44C292.718 57.48 292.515 56.2853 292.515 54.856V47.112C292.515 46.4293 292.686 45.928 293.027 45.608C293.369 45.2667 293.859 45.096 294.499 45.096C295.139 45.096 295.63 45.2667 295.971 45.608C296.334 45.928 296.515 46.4293 296.515 47.112V54.92C296.515 56.0293 296.739 56.8507 297.187 57.384C297.635 57.9173 298.35 58.184 299.331 58.184C300.398 58.184 301.273 57.8213 301.955 57.096C302.638 56.3493 302.979 55.368 302.979 54.152V47.112C302.979 46.4293 303.15 45.928 303.491 45.608C303.833 45.2667 304.323 45.096 304.963 45.096C305.603 45.096 306.094 45.2667 306.435 45.608C306.798 45.928 306.979 46.4293 306.979 47.112V59.208C306.979 60.5733 306.329 61.256 305.027 61.256C304.409 61.256 303.929 61.0853 303.587 60.744C303.246 60.3813 303.075 59.8693 303.075 59.208V56.776L303.523 57.736C303.075 58.888 302.393 59.7733 301.475 60.392C300.579 61.0107 299.513 61.32 298.275 61.32ZM313.127 61.224C312.487 61.224 311.996 61.032 311.655 60.648C311.313 60.264 311.143 59.7307 311.143 59.048V47.304C311.143 46.6 311.313 46.0667 311.655 45.704C311.996 45.32 312.487 45.128 313.127 45.128C313.767 45.128 314.257 45.32 314.599 45.704C314.961 46.0667 315.143 46.6 315.143 47.304V59.048C315.143 59.7307 314.972 60.264 314.631 60.648C314.289 61.032 313.788 61.224 313.127 61.224ZM313.127 42.152C312.38 42.152 311.793 41.9707 311.367 41.608C310.961 41.224 310.759 40.7013 310.759 40.04C310.759 39.3573 310.961 38.8347 311.367 38.472C311.793 38.1093 312.38 37.928 313.127 37.928C313.895 37.928 314.481 38.1093 314.887 38.472C315.292 38.8347 315.495 39.3573 315.495 40.04C315.495 40.7013 315.292 41.224 314.887 41.608C314.481 41.9707 313.895 42.152 313.127 42.152Z" fill="#05D69E"/>
</svg>
